<svg fill="none" height="90" viewBox="0 0 90 90" width="90" xmlns="http://www.w3.org/2000/svg"><path d="m43.5896 27.0825c-3.285 0-8.37-3.735-13.725-3.6-7.065.09-13.545 4.095-17.19 10.44-7.33498 12.735-1.89 31.545 5.265 41.895 3.51 5.04 7.65 10.71 13.14 10.53 5.265-.225 7.245-3.42 13.635-3.42 6.345 0 8.145 3.42 13.725 3.285 5.67-.09 9.27-5.13 12.735-10.215 4.005-5.85 5.67-11.52 5.76-11.835-.135-.045-11.025-4.23-11.16-16.83-.09-10.53 8.595-15.57 9-15.795-4.95-7.245-12.555-8.055-15.21-8.235-6.93-.54-12.735 3.78-15.975 3.78zm11.7-10.62c2.925-3.51 4.86-8.415 4.32-13.275-4.185.18-9.225 2.79-12.24 6.3-2.7 3.105-5.04 8.1-4.41 12.87 4.635.36 9.405-2.385 12.33-5.895z" fill="#000"/></svg>