<svg fill="none" height="90" viewBox="0 0 90 90" width="90" xmlns="http://www.w3.org/2000/svg"><path d="m44.0667 82.4888c-19.5787-.48-35.43748-15.9638-36.50998-35.3925l-.045-1.1738zm.9338-74.98879c6.0304-.00434 11.9727 1.44746 17.3217 4.23199 5.3491 2.7845 9.9467 6.8194 13.402 11.7618l-6.1425 4.305c-3.1206-4.4565-7.394-7.9808-12.363-10.1961-4.9689-2.2153-10.4466-3.0382-15.8472-2.3807-5.4005.6575-10.5208 2.7707-14.8131 6.1135s-7.5952 7.7895-9.5554 12.8645l38.7975 38.7975c4.4512-1.7224 8.4285-4.4798 11.6029-8.0441 3.1743-3.5643 5.4546-7.8331 6.6521-12.4534h-15.93v-7.5h24.375c0 17.7225-12.2963 32.5725-28.8188 36.4875l-45.17248-45.165c3.91878-16.5225 18.76878-28.82249 36.49128-28.82249z" fill="#000"/></svg>