<svg fill="none" height="90" viewBox="0 0 90 90" width="90" xmlns="http://www.w3.org/2000/svg"><path d="m13.5338 6.80249 38.1862 38.19751-38.1825 38.1975c-.679-.2854-1.2584-.7653-1.6654-1.3791-.407-.6139-.6235-1.3344-.6221-2.0709v-69.495c.0003-.73568.217-1.45502.623-2.06846.4061-.61345.9837-1.0939 1.6608-1.38155zm40.8375 40.84871 8.6325 8.6325-41.0138 23.7488zm11.9962-11.9925 10.5263 6.0975c.5682.3297 1.0399.8028 1.3678 1.3721s.5005 1.2147.5005 1.8717-.1726 1.3024-.5005 1.8717c-.3279.5692-.7996 1.0424-1.3678 1.372l-10.53 6.0975-9.3413-9.3412zm-44.3775-25.69121 41.0175 23.74501-8.6362 8.6362z" fill="#000"/></svg>