<svg fill="none" height="90" viewBox="0 0 90 90" width="90" xmlns="http://www.w3.org/2000/svg"><path d="m84.6899 63.7912c-1.6125 2.0363-5.5575 3.4875-5.5575 3.4875l-29.3738 10.5638v-7.7925l21.615-7.7138c2.4563-.8775 2.8313-2.1224.8363-2.7749-1.9875-.6563-5.5913-.4688-8.0475.4162l-14.4 5.0775v-8.0813l.825-.2812s4.1625-1.4775 10.0162-2.1263c5.85-.645 13.02.0901 18.645 2.2238 6.3375 2.0063 7.05 4.9613 5.4413 6.9975zm-32.1375-13.2637v-19.92c0-2.34-.4275-4.4925-2.6213-5.1-1.6762-.54-2.7187 1.02-2.7187 3.3563v49.8862l-13.44-4.2712v-59.4788c5.715 1.0612 14.04 3.5738 18.5137 5.0813 11.3813 3.9112 15.24 8.7824 15.24 19.7512 0 10.6912-6.5925 14.745-14.97 10.695zm-43.43628 18.7125c-6.50625-1.8375-7.59-5.6625-4.62375-7.8637 2.74125-2.0325 7.40253-3.5626 7.40253-3.5626l19.2675-6.8625v7.8226l-13.8638 4.9687c-2.4487.8775-2.8275 2.1225-.8362 2.775 1.9912.6563 5.5987.4688 8.0512-.4125l6.6488-2.415v6.9938l-1.3238.225c-6.6525 1.0875-13.74.6337-20.72248-1.6688z" fill="#000"/></svg>