<svg fill="none" height="90" viewBox="0 0 90 90" width="90" xmlns="http://www.w3.org/2000/svg"><path d="m49.9124 76.5c-4.9587.7746-10.0301.3673-14.8016-1.1886-4.7715-1.556-9.1081-4.2167-12.6569-7.7655s-6.2094-7.8854-7.7654-12.6569c-1.5559-4.7714-1.9632-9.8429-1.1886-14.8015-1.9548-3.7181-2.6691-7.9639-2.0385-12.1169.6306-4.1531 2.573-7.9955 5.5432-10.9658 2.9703-2.9703 6.8128-4.9127 10.9658-5.5433 4.153-.6305 8.3989.0838 12.117 2.0385 4.9586-.7746 10.03-.3673 14.8015 1.1887 4.7715 1.5559 9.1081 4.2166 12.6569 7.7654s6.2094 7.8854 7.7654 12.6569c1.556 4.7714 1.9632 9.8429 1.1887 14.8015 1.9547 3.7181 2.669 7.9639 2.0384 12.117-.6306 4.153-2.5729 7.9954-5.5432 10.9657s-6.8128 4.9127-10.9658 5.5433-8.3989-.0837-12.1169-2.0385zm-4.7175-12.165h-.15c10.77 0 16.1362-5.1975 16.1362-12.1612 0-4.4925-2.0662-9.2663-10.2225-11.0925l-7.4362-1.65c-2.8313-.645-6.0825-1.5-6.0825-4.1813 0-2.6812 2.325-4.5487 6.465-4.5487 8.3625 0 7.6012 5.73 11.7412 5.73 2.16 0 4.0988-1.2825 4.0988-3.4875 0-5.1375-8.2388-9-15.21-9-7.5788 0-15.6488 3.2212-15.6488 11.79 0 4.1175 1.4775 8.5125 9.6 10.5487l10.0838 2.5163c3.06.7575 3.8175 2.4712 3.8175 4.02 0 2.5762-2.565 5.0925-7.1925 5.0925-9.0638 0-7.7925-6.9638-12.6525-6.9638-2.175 0-3.7613 1.4925-3.7613 3.6413 0 4.1775 5.07 9.7425 16.4138 9.7425z" fill="#000"/></svg>