<svg fill="none" height="90" viewBox="0 0 90 90" width="90" xmlns="http://www.w3.org/2000/svg"><path d="m20.3175 73.2263c6.8258 5.9903 15.601 9.2873 24.6825 9.2737 9.0848.0126 17.8631-3.2842 24.6938-9.2737 5.865-5.9738-13.4888-27.2138-24.6938-35.6776-11.1937 8.4638-30.5625 29.7038-24.6825 35.6776zm34.875-45.0188c7.815 9.255 23.3888 32.2313 18.99 40.35 5.3941-6.6608 8.3311-14.9753 8.3175-23.5462.0069-4.9645-.9762-9.8805-2.8918-14.4605s-4.7252-8.732-8.2644-12.2133c0 0-.0825-.0675-.255-.1312-.2832-.0985-.5815-.1468-.8813-.1425-1.8487 0-6.2025 1.3575-15.015 10.1437zm-36.2737-9.9975c-.18.0638-.255.1275-.27.1312-3.5366 3.4822-6.344 7.634-8.2582 12.2131-1.9142 4.5792-2.89685 9.4938-2.89057 14.457 0 8.9212 3.11997 17.1037 8.31747 23.5425-4.38-8.1413 11.1825-31.0988 18.9975-40.3425-8.8125-8.7938-13.1737-10.1438-15.015-10.1438-.2993-.0097-.5975.04-.8775.1462v-.0074zm26.0812.3863s-9.2025-5.385-16.3875-5.64c-2.8237-.1013-4.545.9225-4.755 1.0575 6.7013-4.4963 13.8263-6.5138 21.0938-6.5138h.0487c7.2938 0 14.3925 2.0175 21.1425 6.5138-.21-.1425-1.92-1.1625-4.7475-1.0575-7.1887.255-16.395 5.625-16.395 5.625z" fill="#000"/></svg>