<svg fill="none" height="90" viewBox="0 0 90 90" width="90" xmlns="http://www.w3.org/2000/svg"><path d="m37.1325 81.8963c-3.8919-.0005-7.7456-.7676-11.341-2.2574-3.5955-1.4898-6.8623-3.6732-9.6139-6.4256-2.7516-2.7523-4.9342-6.0196-6.42311-9.6155-1.48891-3.5958-2.25498-7.4497-2.25449-11.3415 0-13.6688 9.2512-25.7813 21.84-28.5938 14.7038-3.3 21.39-5.88 26.535-16.1625 3.7425 7.2563 1.2113 13.9125 0 17.5388 17.6175-4.2338 23.8913-12.3001 25.4025-13.3051 0 14.8201-4.6163 24.1951-9.0713 30.2438 5.535-.21 7.5338-1.815 10.2901-2.2012-1.2188 5.43-5.625 13.0875-16.2375 17.9812-1.2828 6.7871-4.8953 12.9132-10.2138 17.3204s-12.009 6.8188-18.9163 6.8184zm13.9125-24.195c0 1.2112-.1988 1.815-1.5113 1.815l-11.8124.0075 11.1-12.18c3.2249-3.225 3.2249-4.8375 3.2249-8.955 0-1.2525-.18-2.6888.18-3.9375.1763-.54-.18-.72-.7162-.54-1.2563.3562-3.405.3562-6.9862.3562h-16.1176c-.8962 0-1.2562-.5362-.8962-1.2525 0-.18 0-.7162-.36-.7162-2.325 1.0725-2.865 5.91-2.685 8.955 0 1.6125.8962 2.5087 2.1488 2.5087h12.7162l-13.0725 13.9688c-.9 1.0762-1.7925 2.5087-1.7925 4.4775v3.9412c0 1.7925 1.0763 2.865 3.045 3.225h22.455c2.0813 0 3.4987-.8737 3.4987-3.2062v-4.2338c0-.78.0001-3.63-2.4187-4.2337z" fill="#000"/></svg>